M48
; DRILL file {KiCad (6.0.1)} date Wed Jun  1 15:12:47 2022
; FORMAT={-:-/ absolute / metric / decimal}
; #@! TF.CreationDate,2022-06-01T15:12:47+03:00
; #@! TF.GenerationSoftware,Kicad,Pcbnew,(6.0.1)
; #@! TF.FileFunction,Plated,1,2,PTH
FMAT,2
METRIC
; #@! TA.AperFunction,Plated,PTH,ComponentDrill
T1C1.000
; #@! TA.AperFunction,Plated,PTH,ComponentDrill
T2C1.020
; #@! TA.AperFunction,Plated,PTH,ComponentDrill
T3C1.200
%
G90
G05
T2
X102.153Y-62.81
X102.153Y-65.81
X102.153Y-68.81
X102.153Y-71.81
X105.153Y-62.81
X105.153Y-65.81
X105.153Y-68.81
X105.153Y-71.81
X141.989Y-51.078
X141.989Y-54.078
X141.989Y-62.81
X141.989Y-65.81
X141.989Y-68.81
X141.989Y-71.81
X144.989Y-51.078
X144.989Y-54.078
X144.989Y-62.81
X144.989Y-65.81
X144.989Y-68.81
X144.989Y-71.81
T3
X94.111Y-83.139
X94.111Y-97.189
X155.071Y-83.139
X155.071Y-97.189
T1
G00X113.774Y-58.468
M15
G01X113.774Y-64.468
M16
G05
G00X125.174Y-53.068
M15
G01X119.174Y-53.068
M16
G05
G00X125.174Y-69.868
M15
G01X119.174Y-69.868
M16
G05
G00X134.674Y-61.468
M15
G01X128.674Y-61.468
M16
G05
T0
M30
