%TF.GenerationSoftware,KiCad,Pcbnew,(6.0.1)*%
%TF.CreationDate,2022-06-01T15:12:45+03:00*%
%TF.ProjectId,Charge Adapter,43686172-6765-4204-9164-61707465722e,rev?*%
%TF.SameCoordinates,Original*%
%TF.FileFunction,Copper,L1,Top*%
%TF.FilePolarity,Positive*%
%FSLAX46Y46*%
G04 Gerber Fmt 4.6, Leading zero omitted, Abs format (unit mm)*
G04 Created by KiCad (PCBNEW (6.0.1)) date 2022-06-01 15:12:45*
%MOMM*%
%LPD*%
G01*
G04 APERTURE LIST*
G04 Aperture macros list*
%AMRoundRect*
0 Rectangle with rounded corners*
0 $1 Rounding radius*
0 $2 $3 $4 $5 $6 $7 $8 $9 X,Y pos of 4 corners*
0 Add a 4 corners polygon primitive as box body*
4,1,4,$2,$3,$4,$5,$6,$7,$8,$9,$2,$3,0*
0 Add four circle primitives for the rounded corners*
1,1,$1+$1,$2,$3*
1,1,$1+$1,$4,$5*
1,1,$1+$1,$6,$7*
1,1,$1+$1,$8,$9*
0 Add four rect primitives between the rounded corners*
20,1,$1+$1,$2,$3,$4,$5,0*
20,1,$1+$1,$4,$5,$6,$7,0*
20,1,$1+$1,$6,$7,$8,$9,0*
20,1,$1+$1,$8,$9,$2,$3,0*%
G04 Aperture macros list end*
%TA.AperFunction,ComponentPad*%
%ADD10C,2.400000*%
%TD*%
%TA.AperFunction,ComponentPad*%
%ADD11O,2.400000X2.400000*%
%TD*%
%TA.AperFunction,ComponentPad*%
%ADD12RoundRect,0.250001X0.499999X-0.499999X0.499999X0.499999X-0.499999X0.499999X-0.499999X-0.499999X0*%
%TD*%
%TA.AperFunction,ComponentPad*%
%ADD13C,1.500000*%
%TD*%
%TA.AperFunction,ComponentPad*%
%ADD14RoundRect,0.250001X-0.499999X0.499999X-0.499999X-0.499999X0.499999X-0.499999X0.499999X0.499999X0*%
%TD*%
%TA.AperFunction,ComponentPad*%
%ADD15RoundRect,0.500000X3.500000X0.500000X-3.500000X0.500000X-3.500000X-0.500000X3.500000X-0.500000X0*%
%TD*%
%TA.AperFunction,ComponentPad*%
%ADD16RoundRect,0.500000X-0.500000X3.500000X-0.500000X-3.500000X0.500000X-3.500000X0.500000X3.500000X0*%
%TD*%
G04 APERTURE END LIST*
D10*
%TO.P,R2,1*%
%TO.N,Net-(D1-Pad30)*%
X155071000Y-83139000D03*
D11*
%TO.P,R2,2*%
%TO.N,Net-(D1-Pad87)*%
X94111000Y-83139000D03*
%TD*%
D10*
%TO.P,R1,1*%
%TO.N,Net-(D1-Pad30)*%
X155071000Y-97189000D03*
D11*
%TO.P,R1,2*%
%TO.N,Net-(D1-Pad87)*%
X94111000Y-97189000D03*
%TD*%
D12*
%TO.P,J3,1,Pin_1*%
%TO.N,Net-(D1-Pad87)*%
X102153000Y-71810000D03*
D13*
%TO.P,J3,2,Pin_2*%
X102153000Y-68810000D03*
%TO.P,J3,3,Pin_3*%
X102153000Y-65810000D03*
%TO.P,J3,4,Pin_4*%
X102153000Y-62810000D03*
%TO.P,J3,5,Pin_5*%
X105153000Y-71810000D03*
%TO.P,J3,6,Pin_6*%
X105153000Y-68810000D03*
%TO.P,J3,7,Pin_7*%
X105153000Y-65810000D03*
%TO.P,J3,8,Pin_8*%
X105153000Y-62810000D03*
%TD*%
D14*
%TO.P,J2,1,Pin_1*%
%TO.N,Net-(D1-Pad86)*%
X144989000Y-51078000D03*
D13*
%TO.P,J2,2,Pin_2*%
%TO.N,Net-(D1-Pad85)*%
X144989000Y-54078000D03*
%TO.P,J2,3,Pin_3*%
%TO.N,Net-(D1-Pad86)*%
X141989000Y-51078000D03*
%TO.P,J2,4,Pin_4*%
%TO.N,Net-(D1-Pad85)*%
X141989000Y-54078000D03*
%TD*%
D14*
%TO.P,J1,1,Pin_1*%
%TO.N,Net-(D1-Pad30)*%
X144989000Y-62810000D03*
D13*
%TO.P,J1,2,Pin_2*%
X144989000Y-65810000D03*
%TO.P,J1,3,Pin_3*%
X144989000Y-68810000D03*
%TO.P,J1,4,Pin_4*%
X144989000Y-71810000D03*
%TO.P,J1,5,Pin_5*%
X141989000Y-62810000D03*
%TO.P,J1,6,Pin_6*%
X141989000Y-65810000D03*
%TO.P,J1,7,Pin_7*%
X141989000Y-68810000D03*
%TO.P,J1,8,Pin_8*%
X141989000Y-71810000D03*
%TD*%
D15*
%TO.P,D1,30*%
%TO.N,Net-(D1-Pad30)*%
X131674000Y-61468000D03*
%TO.P,D1,85*%
%TO.N,Net-(D1-Pad85)*%
X122174000Y-69868000D03*
%TO.P,D1,86*%
%TO.N,Net-(D1-Pad86)*%
X122174000Y-53068000D03*
D16*
%TO.P,D1,87*%
%TO.N,Net-(D1-Pad87)*%
X113774000Y-61468000D03*
%TD*%
%TA.AperFunction,Conductor*%
%TO.N,Net-(D1-Pad87)*%
G36*
X115766121Y-55900002D02*
G01*
X115812614Y-55953658D01*
X115824000Y-56006000D01*
X115824000Y-103268000D01*
X115803998Y-103336121D01*
X115750342Y-103382614D01*
X115698000Y-103394000D01*
X92836000Y-103394000D01*
X92767879Y-103373998D01*
X92721386Y-103320342D01*
X92710000Y-103268000D01*
X92710000Y-69807318D01*
X95332500Y-69807318D01*
X95371934Y-70119473D01*
X95372920Y-70123312D01*
X95449194Y-70420383D01*
X95449197Y-70420391D01*
X95450181Y-70424225D01*
X95566006Y-70716766D01*
X95717584Y-70992484D01*
X95902522Y-71247030D01*
X96117906Y-71476390D01*
X96360337Y-71676947D01*
X96625993Y-71845537D01*
X96629572Y-71847221D01*
X96629579Y-71847225D01*
X96907095Y-71977814D01*
X96907099Y-71977816D01*
X96910685Y-71979503D01*
X97209921Y-72076731D01*
X97518985Y-72135688D01*
X97612489Y-72141571D01*
X97752422Y-72150375D01*
X97752438Y-72150376D01*
X97754417Y-72150500D01*
X97911583Y-72150500D01*
X97913562Y-72150376D01*
X97913578Y-72150375D01*
X98053511Y-72141571D01*
X98147015Y-72135688D01*
X98456079Y-72076731D01*
X98755315Y-71979503D01*
X98758901Y-71977816D01*
X98758905Y-71977814D01*
X99036421Y-71847225D01*
X99036428Y-71847221D01*
X99040007Y-71845537D01*
X99305663Y-71676947D01*
X99548094Y-71476390D01*
X99763478Y-71247030D01*
X99948416Y-70992484D01*
X100099994Y-70716766D01*
X100215819Y-70424225D01*
X100216803Y-70420391D01*
X100216806Y-70420383D01*
X100293080Y-70123312D01*
X100294066Y-70119473D01*
X100333500Y-69807318D01*
X100333500Y-69492682D01*
X100294066Y-69180527D01*
X100265193Y-69068074D01*
X100216806Y-68879617D01*
X100216803Y-68879609D01*
X100215819Y-68875775D01*
X100099994Y-68583234D01*
X99948416Y-68307516D01*
X99763478Y-68052970D01*
X99548094Y-67823610D01*
X99305663Y-67623053D01*
X99040007Y-67454463D01*
X99036428Y-67452779D01*
X99036421Y-67452775D01*
X98954036Y-67414008D01*
X98900915Y-67366905D01*
X98881692Y-67298560D01*
X98902471Y-67230673D01*
X98954036Y-67185992D01*
X99036421Y-67147225D01*
X99036428Y-67147221D01*
X99040007Y-67145537D01*
X99305663Y-66976947D01*
X99548094Y-66776390D01*
X99763478Y-66547030D01*
X99948416Y-66292484D01*
X100099994Y-66016766D01*
X100215819Y-65724225D01*
X100216803Y-65720391D01*
X100216806Y-65720383D01*
X100293080Y-65423312D01*
X100294066Y-65419473D01*
X100333500Y-65107318D01*
X100333500Y-64792682D01*
X100294066Y-64480527D01*
X100265193Y-64368074D01*
X100216806Y-64179617D01*
X100216803Y-64179609D01*
X100215819Y-64175775D01*
X100099994Y-63883234D01*
X99948416Y-63607516D01*
X99763478Y-63352970D01*
X99548094Y-63123610D01*
X99305663Y-62923053D01*
X99040007Y-62754463D01*
X99036428Y-62752779D01*
X99036421Y-62752775D01*
X98758905Y-62622186D01*
X98758901Y-62622184D01*
X98755315Y-62620497D01*
X98456079Y-62523269D01*
X98147015Y-62464312D01*
X98053511Y-62458429D01*
X97913578Y-62449625D01*
X97913562Y-62449624D01*
X97911583Y-62449500D01*
X97754417Y-62449500D01*
X97752438Y-62449624D01*
X97752422Y-62449625D01*
X97612489Y-62458429D01*
X97518985Y-62464312D01*
X97209921Y-62523269D01*
X96910685Y-62620497D01*
X96907099Y-62622184D01*
X96907095Y-62622186D01*
X96629579Y-62752775D01*
X96629572Y-62752779D01*
X96625993Y-62754463D01*
X96360337Y-62923053D01*
X96117906Y-63123610D01*
X95902522Y-63352970D01*
X95717584Y-63607516D01*
X95566006Y-63883234D01*
X95450181Y-64175775D01*
X95449197Y-64179609D01*
X95449194Y-64179617D01*
X95400807Y-64368074D01*
X95371934Y-64480527D01*
X95332500Y-64792682D01*
X95332500Y-65107318D01*
X95371934Y-65419473D01*
X95372920Y-65423312D01*
X95449194Y-65720383D01*
X95449197Y-65720391D01*
X95450181Y-65724225D01*
X95566006Y-66016766D01*
X95717584Y-66292484D01*
X95902522Y-66547030D01*
X96117906Y-66776390D01*
X96360337Y-66976947D01*
X96625993Y-67145537D01*
X96629572Y-67147221D01*
X96629579Y-67147225D01*
X96711964Y-67185992D01*
X96765085Y-67233095D01*
X96784308Y-67301440D01*
X96763529Y-67369327D01*
X96711964Y-67414008D01*
X96629579Y-67452775D01*
X96629572Y-67452779D01*
X96625993Y-67454463D01*
X96360337Y-67623053D01*
X96117906Y-67823610D01*
X95902522Y-68052970D01*
X95717584Y-68307516D01*
X95566006Y-68583234D01*
X95450181Y-68875775D01*
X95449197Y-68879609D01*
X95449194Y-68879617D01*
X95400807Y-69068074D01*
X95371934Y-69180527D01*
X95332500Y-69492682D01*
X95332500Y-69807318D01*
X92710000Y-69807318D01*
X92710000Y-56006000D01*
X92730002Y-55937879D01*
X92783658Y-55891386D01*
X92836000Y-55880000D01*
X115698000Y-55880000D01*
X115766121Y-55900002D01*
G37*
%TD.AperFunction*%
%TD*%
%TA.AperFunction,Conductor*%
%TO.N,Net-(D1-Pad30)*%
G36*
X155406121Y-58948002D02*
G01*
X155452614Y-59001658D01*
X155464000Y-59054000D01*
X155464000Y-75916303D01*
X155463827Y-75922897D01*
X155460043Y-75995102D01*
X155460998Y-76001415D01*
X155460998Y-76001420D01*
X155471117Y-76068322D01*
X155471889Y-76074432D01*
X155479373Y-76148115D01*
X155481281Y-76154203D01*
X155483839Y-76162365D01*
X155488187Y-76181197D01*
X155490422Y-76195972D01*
X155492627Y-76201965D01*
X155515997Y-76265482D01*
X155517980Y-76271308D01*
X155540125Y-76341973D01*
X155543219Y-76347555D01*
X155543222Y-76347562D01*
X155547365Y-76355036D01*
X155555411Y-76372610D01*
X155558363Y-76380634D01*
X155558367Y-76380643D01*
X155560571Y-76386632D01*
X155563937Y-76392060D01*
X155599601Y-76449580D01*
X155602695Y-76454853D01*
X155638616Y-76519657D01*
X155642771Y-76524504D01*
X155648336Y-76530997D01*
X155659759Y-76546605D01*
X155667625Y-76559292D01*
X155672009Y-76563928D01*
X155718511Y-76613103D01*
X155722630Y-76617678D01*
X155770824Y-76673906D01*
X155782631Y-76683064D01*
X155796947Y-76696046D01*
X155807210Y-76706899D01*
X155812440Y-76710561D01*
X155812441Y-76710562D01*
X155867881Y-76749382D01*
X155872836Y-76753035D01*
X155931348Y-76798421D01*
X155937079Y-76801241D01*
X155944745Y-76805014D01*
X155961382Y-76814853D01*
X155968392Y-76819761D01*
X155968395Y-76819763D01*
X155973624Y-76823424D01*
X155979478Y-76825957D01*
X155979481Y-76825959D01*
X156041583Y-76852833D01*
X156047171Y-76855415D01*
X156107899Y-76885296D01*
X156113630Y-76888116D01*
X156123735Y-76890748D01*
X156128090Y-76891883D01*
X156146362Y-76898174D01*
X156160071Y-76904106D01*
X156166310Y-76905410D01*
X156166315Y-76905411D01*
X156232548Y-76919248D01*
X156238540Y-76920653D01*
X156310225Y-76939325D01*
X156316595Y-76939659D01*
X156316596Y-76939659D01*
X156325143Y-76940107D01*
X156344309Y-76942596D01*
X156358929Y-76945650D01*
X156358721Y-76946644D01*
X156419206Y-76973275D01*
X156458401Y-77032472D01*
X156464000Y-77069616D01*
X156464000Y-103268000D01*
X156443998Y-103336121D01*
X156390342Y-103382614D01*
X156338000Y-103394000D01*
X127634000Y-103394000D01*
X127565879Y-103373998D01*
X127519386Y-103320342D01*
X127508000Y-103268000D01*
X127508000Y-69827318D01*
X146808500Y-69827318D01*
X146847934Y-70139473D01*
X146848920Y-70143312D01*
X146925194Y-70440383D01*
X146925197Y-70440391D01*
X146926181Y-70444225D01*
X147042006Y-70736766D01*
X147193584Y-71012484D01*
X147378522Y-71267030D01*
X147593906Y-71496390D01*
X147836337Y-71696947D01*
X148101993Y-71865537D01*
X148105572Y-71867221D01*
X148105579Y-71867225D01*
X148383095Y-71997814D01*
X148383099Y-71997816D01*
X148386685Y-71999503D01*
X148685921Y-72096731D01*
X148994985Y-72155688D01*
X149088489Y-72161571D01*
X149228422Y-72170375D01*
X149228438Y-72170376D01*
X149230417Y-72170500D01*
X149387583Y-72170500D01*
X149389562Y-72170376D01*
X149389578Y-72170375D01*
X149529511Y-72161571D01*
X149623015Y-72155688D01*
X149932079Y-72096731D01*
X150231315Y-71999503D01*
X150234901Y-71997816D01*
X150234905Y-71997814D01*
X150512421Y-71867225D01*
X150512428Y-71867221D01*
X150516007Y-71865537D01*
X150781663Y-71696947D01*
X151024094Y-71496390D01*
X151239478Y-71267030D01*
X151424416Y-71012484D01*
X151575994Y-70736766D01*
X151691819Y-70444225D01*
X151692803Y-70440391D01*
X151692806Y-70440383D01*
X151769080Y-70143312D01*
X151770066Y-70139473D01*
X151809500Y-69827318D01*
X151809500Y-69512682D01*
X151770066Y-69200527D01*
X151741193Y-69088074D01*
X151692806Y-68899617D01*
X151692803Y-68899609D01*
X151691819Y-68895775D01*
X151575994Y-68603234D01*
X151424416Y-68327516D01*
X151239478Y-68072970D01*
X151024094Y-67843610D01*
X150781663Y-67643053D01*
X150516007Y-67474463D01*
X150512428Y-67472779D01*
X150512421Y-67472775D01*
X150430036Y-67434008D01*
X150376915Y-67386905D01*
X150357692Y-67318560D01*
X150378471Y-67250673D01*
X150430036Y-67205992D01*
X150512421Y-67167225D01*
X150512428Y-67167221D01*
X150516007Y-67165537D01*
X150781663Y-66996947D01*
X151024094Y-66796390D01*
X151239478Y-66567030D01*
X151424416Y-66312484D01*
X151575994Y-66036766D01*
X151691819Y-65744225D01*
X151692803Y-65740391D01*
X151692806Y-65740383D01*
X151769080Y-65443312D01*
X151770066Y-65439473D01*
X151809500Y-65127318D01*
X151809500Y-64812682D01*
X151770066Y-64500527D01*
X151741193Y-64388074D01*
X151692806Y-64199617D01*
X151692803Y-64199609D01*
X151691819Y-64195775D01*
X151575994Y-63903234D01*
X151424416Y-63627516D01*
X151239478Y-63372970D01*
X151024094Y-63143610D01*
X150781663Y-62943053D01*
X150516007Y-62774463D01*
X150512428Y-62772779D01*
X150512421Y-62772775D01*
X150234905Y-62642186D01*
X150234901Y-62642184D01*
X150231315Y-62640497D01*
X149932079Y-62543269D01*
X149623015Y-62484312D01*
X149529511Y-62478429D01*
X149389578Y-62469625D01*
X149389562Y-62469624D01*
X149387583Y-62469500D01*
X149230417Y-62469500D01*
X149228438Y-62469624D01*
X149228422Y-62469625D01*
X149088489Y-62478429D01*
X148994985Y-62484312D01*
X148685921Y-62543269D01*
X148386685Y-62640497D01*
X148383099Y-62642184D01*
X148383095Y-62642186D01*
X148105579Y-62772775D01*
X148105572Y-62772779D01*
X148101993Y-62774463D01*
X147836337Y-62943053D01*
X147593906Y-63143610D01*
X147378522Y-63372970D01*
X147193584Y-63627516D01*
X147042006Y-63903234D01*
X146926181Y-64195775D01*
X146925197Y-64199609D01*
X146925194Y-64199617D01*
X146876807Y-64388074D01*
X146847934Y-64500527D01*
X146808500Y-64812682D01*
X146808500Y-65127318D01*
X146847934Y-65439473D01*
X146848920Y-65443312D01*
X146925194Y-65740383D01*
X146925197Y-65740391D01*
X146926181Y-65744225D01*
X147042006Y-66036766D01*
X147193584Y-66312484D01*
X147378522Y-66567030D01*
X147593906Y-66796390D01*
X147836337Y-66996947D01*
X148101993Y-67165537D01*
X148105572Y-67167221D01*
X148105579Y-67167225D01*
X148187964Y-67205992D01*
X148241085Y-67253095D01*
X148260308Y-67321440D01*
X148239529Y-67389327D01*
X148187964Y-67434008D01*
X148105579Y-67472775D01*
X148105572Y-67472779D01*
X148101993Y-67474463D01*
X147836337Y-67643053D01*
X147593906Y-67843610D01*
X147378522Y-68072970D01*
X147193584Y-68327516D01*
X147042006Y-68603234D01*
X146926181Y-68895775D01*
X146925197Y-68899609D01*
X146925194Y-68899617D01*
X146876807Y-69088074D01*
X146847934Y-69200527D01*
X146808500Y-69512682D01*
X146808500Y-69827318D01*
X127508000Y-69827318D01*
X127508000Y-59054000D01*
X127528002Y-58985879D01*
X127581658Y-58939386D01*
X127634000Y-58928000D01*
X155338000Y-58928000D01*
X155406121Y-58948002D01*
G37*
%TD.AperFunction*%
%TD*%
M02*
