%TF.GenerationSoftware,KiCad,Pcbnew,(6.0.1)*%
%TF.CreationDate,2022-06-01T15:12:45+03:00*%
%TF.ProjectId,Charge Adapter,43686172-6765-4204-9164-61707465722e,rev?*%
%TF.SameCoordinates,Original*%
%TF.FileFunction,Legend,Top*%
%TF.FilePolarity,Positive*%
%FSLAX46Y46*%
G04 Gerber Fmt 4.6, Leading zero omitted, Abs format (unit mm)*
G04 Created by KiCad (PCBNEW (6.0.1)) date 2022-06-01 15:12:45*
%MOMM*%
%LPD*%
G01*
G04 APERTURE LIST*
%ADD10C,0.150000*%
%ADD11C,0.120000*%
G04 APERTURE END LIST*
D10*
X155900380Y-54046285D02*
X155424190Y-54379619D01*
X155900380Y-54617714D02*
X154900380Y-54617714D01*
X154900380Y-54236761D01*
X154948000Y-54141523D01*
X154995619Y-54093904D01*
X155090857Y-54046285D01*
X155233714Y-54046285D01*
X155328952Y-54093904D01*
X155376571Y-54141523D01*
X155424190Y-54236761D01*
X155424190Y-54617714D01*
X155852761Y-53236761D02*
X155900380Y-53332000D01*
X155900380Y-53522476D01*
X155852761Y-53617714D01*
X155757523Y-53665333D01*
X155376571Y-53665333D01*
X155281333Y-53617714D01*
X155233714Y-53522476D01*
X155233714Y-53332000D01*
X155281333Y-53236761D01*
X155376571Y-53189142D01*
X155471809Y-53189142D01*
X155567047Y-53665333D01*
X155900380Y-52617714D02*
X155852761Y-52712952D01*
X155757523Y-52760571D01*
X154900380Y-52760571D01*
X155900380Y-51808190D02*
X155376571Y-51808190D01*
X155281333Y-51855809D01*
X155233714Y-51951047D01*
X155233714Y-52141523D01*
X155281333Y-52236761D01*
X155852761Y-51808190D02*
X155900380Y-51903428D01*
X155900380Y-52141523D01*
X155852761Y-52236761D01*
X155757523Y-52284380D01*
X155662285Y-52284380D01*
X155567047Y-52236761D01*
X155519428Y-52141523D01*
X155519428Y-51903428D01*
X155471809Y-51808190D01*
X155233714Y-51427238D02*
X155900380Y-51189142D01*
X155233714Y-50951047D02*
X155900380Y-51189142D01*
X156138476Y-51284380D01*
X156186095Y-51332000D01*
X156233714Y-51427238D01*
X154900380Y-69587809D02*
X154900380Y-69397333D01*
X154948000Y-69302095D01*
X155043238Y-69206857D01*
X155233714Y-69159238D01*
X155567047Y-69159238D01*
X155757523Y-69206857D01*
X155852761Y-69302095D01*
X155900380Y-69397333D01*
X155900380Y-69587809D01*
X155852761Y-69683047D01*
X155757523Y-69778285D01*
X155567047Y-69825904D01*
X155233714Y-69825904D01*
X155043238Y-69778285D01*
X154948000Y-69683047D01*
X154900380Y-69587809D01*
X155233714Y-68302095D02*
X155900380Y-68302095D01*
X155233714Y-68730666D02*
X155757523Y-68730666D01*
X155852761Y-68683047D01*
X155900380Y-68587809D01*
X155900380Y-68444952D01*
X155852761Y-68349714D01*
X155805142Y-68302095D01*
X155233714Y-67968761D02*
X155233714Y-67587809D01*
X154900380Y-67825904D02*
X155757523Y-67825904D01*
X155852761Y-67778285D01*
X155900380Y-67683047D01*
X155900380Y-67587809D01*
X155233714Y-67254476D02*
X156233714Y-67254476D01*
X155281333Y-67254476D02*
X155233714Y-67159238D01*
X155233714Y-66968761D01*
X155281333Y-66873523D01*
X155328952Y-66825904D01*
X155424190Y-66778285D01*
X155709904Y-66778285D01*
X155805142Y-66825904D01*
X155852761Y-66873523D01*
X155900380Y-66968761D01*
X155900380Y-67159238D01*
X155852761Y-67254476D01*
X155233714Y-65921142D02*
X155900380Y-65921142D01*
X155233714Y-66349714D02*
X155757523Y-66349714D01*
X155852761Y-66302095D01*
X155900380Y-66206857D01*
X155900380Y-66064000D01*
X155852761Y-65968761D01*
X155805142Y-65921142D01*
X155233714Y-65587809D02*
X155233714Y-65206857D01*
X154900380Y-65444952D02*
X155757523Y-65444952D01*
X155852761Y-65397333D01*
X155900380Y-65302095D01*
X155900380Y-65206857D01*
X91241619Y-65667142D02*
X92241619Y-65667142D01*
X91908285Y-66143333D02*
X91241619Y-66143333D01*
X91813047Y-66143333D02*
X91860666Y-66190952D01*
X91908285Y-66286190D01*
X91908285Y-66429047D01*
X91860666Y-66524285D01*
X91765428Y-66571904D01*
X91241619Y-66571904D01*
X91908285Y-67048095D02*
X90908285Y-67048095D01*
X91860666Y-67048095D02*
X91908285Y-67143333D01*
X91908285Y-67333809D01*
X91860666Y-67429047D01*
X91813047Y-67476666D01*
X91717809Y-67524285D01*
X91432095Y-67524285D01*
X91336857Y-67476666D01*
X91289238Y-67429047D01*
X91241619Y-67333809D01*
X91241619Y-67143333D01*
X91289238Y-67048095D01*
X91908285Y-68381428D02*
X91241619Y-68381428D01*
X91908285Y-67952857D02*
X91384476Y-67952857D01*
X91289238Y-68000476D01*
X91241619Y-68095714D01*
X91241619Y-68238571D01*
X91289238Y-68333809D01*
X91336857Y-68381428D01*
X91908285Y-68714761D02*
X91908285Y-69095714D01*
X92241619Y-68857619D02*
X91384476Y-68857619D01*
X91289238Y-68905238D01*
X91241619Y-69000476D01*
X91241619Y-69095714D01*
%TO.C,R2*%
X149947333Y-78176380D02*
X149614000Y-77700190D01*
X149375904Y-78176380D02*
X149375904Y-77176380D01*
X149756857Y-77176380D01*
X149852095Y-77224000D01*
X149899714Y-77271619D01*
X149947333Y-77366857D01*
X149947333Y-77509714D01*
X149899714Y-77604952D01*
X149852095Y-77652571D01*
X149756857Y-77700190D01*
X149375904Y-77700190D01*
X150328285Y-77271619D02*
X150375904Y-77224000D01*
X150471142Y-77176380D01*
X150709238Y-77176380D01*
X150804476Y-77224000D01*
X150852095Y-77271619D01*
X150899714Y-77366857D01*
X150899714Y-77462095D01*
X150852095Y-77604952D01*
X150280666Y-78176380D01*
X150899714Y-78176380D01*
%TO.C,R1*%
X149947333Y-92146380D02*
X149614000Y-91670190D01*
X149375904Y-92146380D02*
X149375904Y-91146380D01*
X149756857Y-91146380D01*
X149852095Y-91194000D01*
X149899714Y-91241619D01*
X149947333Y-91336857D01*
X149947333Y-91479714D01*
X149899714Y-91574952D01*
X149852095Y-91622571D01*
X149756857Y-91670190D01*
X149375904Y-91670190D01*
X150899714Y-92146380D02*
X150328285Y-92146380D01*
X150614000Y-92146380D02*
X150614000Y-91146380D01*
X150518761Y-91289238D01*
X150423523Y-91384476D01*
X150328285Y-91432095D01*
%TO.C,J3*%
X91360666Y-58888380D02*
X91360666Y-59602666D01*
X91313047Y-59745523D01*
X91217809Y-59840761D01*
X91074952Y-59888380D01*
X90979714Y-59888380D01*
X91741619Y-58888380D02*
X92360666Y-58888380D01*
X92027333Y-59269333D01*
X92170190Y-59269333D01*
X92265428Y-59316952D01*
X92313047Y-59364571D01*
X92360666Y-59459809D01*
X92360666Y-59697904D01*
X92313047Y-59793142D01*
X92265428Y-59840761D01*
X92170190Y-59888380D01*
X91884476Y-59888380D01*
X91789238Y-59840761D01*
X91741619Y-59793142D01*
%TO.C,J2*%
X155114666Y-46950380D02*
X155114666Y-47664666D01*
X155067047Y-47807523D01*
X154971809Y-47902761D01*
X154828952Y-47950380D01*
X154733714Y-47950380D01*
X155543238Y-47045619D02*
X155590857Y-46998000D01*
X155686095Y-46950380D01*
X155924190Y-46950380D01*
X156019428Y-46998000D01*
X156067047Y-47045619D01*
X156114666Y-47140857D01*
X156114666Y-47236095D01*
X156067047Y-47378952D01*
X155495619Y-47950380D01*
X156114666Y-47950380D01*
%TO.C,J1*%
X155114666Y-58888380D02*
X155114666Y-59602666D01*
X155067047Y-59745523D01*
X154971809Y-59840761D01*
X154828952Y-59888380D01*
X154733714Y-59888380D01*
X156114666Y-59888380D02*
X155543238Y-59888380D01*
X155828952Y-59888380D02*
X155828952Y-58888380D01*
X155733714Y-59031238D01*
X155638476Y-59126476D01*
X155543238Y-59174095D01*
%TO.C,D1*%
X107719904Y-48204380D02*
X107719904Y-47204380D01*
X107958000Y-47204380D01*
X108100857Y-47252000D01*
X108196095Y-47347238D01*
X108243714Y-47442476D01*
X108291333Y-47632952D01*
X108291333Y-47775809D01*
X108243714Y-47966285D01*
X108196095Y-48061523D01*
X108100857Y-48156761D01*
X107958000Y-48204380D01*
X107719904Y-48204380D01*
X109243714Y-48204380D02*
X108672285Y-48204380D01*
X108958000Y-48204380D02*
X108958000Y-47204380D01*
X108862761Y-47347238D01*
X108767523Y-47442476D01*
X108672285Y-47490095D01*
D11*
%TO.C,R2*%
X148711000Y-89509000D02*
X148711000Y-76769000D01*
X95551000Y-83139000D02*
X100471000Y-83139000D01*
X153631000Y-83139000D02*
X148711000Y-83139000D01*
X100471000Y-76769000D02*
X100471000Y-89509000D01*
X148711000Y-76769000D02*
X100471000Y-76769000D01*
X100471000Y-89509000D02*
X148711000Y-89509000D01*
%TO.C,R1*%
X148711000Y-103559000D02*
X148711000Y-90819000D01*
X95551000Y-97189000D02*
X100471000Y-97189000D01*
X153631000Y-97189000D02*
X148711000Y-97189000D01*
X100471000Y-90819000D02*
X100471000Y-103559000D01*
X148711000Y-90819000D02*
X100471000Y-90819000D01*
X100471000Y-103559000D02*
X148711000Y-103559000D01*
%TO.C,J3*%
X93123000Y-74495000D02*
X93123000Y-60125000D01*
X94123000Y-75495000D02*
X93123000Y-74495000D01*
X94123000Y-59125000D02*
X103253000Y-59125000D01*
X103253000Y-59125000D02*
X103253000Y-75495000D01*
X103253000Y-75495000D02*
X94123000Y-75495000D01*
X93123000Y-60125000D02*
X94123000Y-59125000D01*
%TO.C,J2*%
X154019000Y-56763000D02*
X153019000Y-57763000D01*
X153019000Y-57763000D02*
X143889000Y-57763000D01*
X153019000Y-47393000D02*
X154019000Y-48393000D01*
X143889000Y-57763000D02*
X143889000Y-47393000D01*
X154019000Y-48393000D02*
X154019000Y-56763000D01*
X143889000Y-47393000D02*
X153019000Y-47393000D01*
%TO.C,J1*%
X154019000Y-60125000D02*
X154019000Y-74495000D01*
X153019000Y-59125000D02*
X154019000Y-60125000D01*
X153019000Y-75495000D02*
X143889000Y-75495000D01*
X143889000Y-75495000D02*
X143889000Y-59125000D01*
X143889000Y-59125000D02*
X153019000Y-59125000D01*
X154019000Y-74495000D02*
X153019000Y-75495000D01*
%TO.C,D1*%
X139074000Y-75968000D02*
X139074000Y-46968000D01*
X139074000Y-75968000D02*
X110074000Y-75968000D01*
X110074000Y-75968000D02*
X110074000Y-46968000D01*
X139074000Y-46968000D02*
X110074000Y-46968000D01*
%TD*%
M02*
